<svg width="65" height="50" viewBox="0 0 65 50" fill="none" xmlns="http://www.w3.org/2000/svg">
<path d="M19.36 12C19.44 11.34 19.5 10.68 19.5 10C19.5 9.32 19.44 8.66 19.36 8H22.74C22.9 8.64 23 9.31 23 10C23 10.69 22.9 11.36 22.74 12H19.36ZM17.59 17.56C18.19 16.45 18.65 15.25 18.97 14H21.92C20.9512 15.6683 19.4141 16.932 17.59 17.56V17.56ZM17.34 12H12.66C12.56 11.34 12.5 10.68 12.5 10C12.5 9.32 12.56 8.65 12.66 8H17.34C17.43 8.65 17.5 9.32 17.5 10C17.5 10.68 17.43 11.34 17.34 12ZM15 17.96C14.17 16.76 13.5 15.43 13.09 14H16.91C16.5 15.43 15.83 16.76 15 17.96ZM11 6H8.08C9.03886 4.32721 10.5748 3.06149 12.4 2.44C11.8 3.55 11.35 4.75 11 6ZM8.08 14H11C11.35 15.25 11.8 16.45 12.4 17.56C10.5786 16.9317 9.04485 15.6677 8.08 14V14ZM7.26 12C7.1 11.36 7 10.69 7 10C7 9.31 7.1 8.64 7.26 8H10.64C10.56 8.66 10.5 9.32 10.5 10C10.5 10.68 10.56 11.34 10.64 12H7.26ZM15 2.03C15.83 3.23 16.5 4.57 16.91 6H13.09C13.5 4.57 14.17 3.23 15 2.03V2.03ZM21.92 6H18.97C18.657 4.76146 18.1936 3.5659 17.59 2.44C19.43 3.07 20.96 4.34 21.92 6ZM15 0C9.47 0 5 4.5 5 10C5 12.6522 6.05357 15.1957 7.92893 17.0711C8.85752 17.9997 9.95991 18.7362 11.1732 19.2388C12.3864 19.7413 13.6868 20 15 20C17.6522 20 20.1957 18.9464 22.0711 17.0711C23.9464 15.1957 25 12.6522 25 10C25 8.68678 24.7413 7.38642 24.2388 6.17317C23.7362 4.95991 22.9997 3.85752 22.0711 2.92893C21.1425 2.00035 20.0401 1.26375 18.8268 0.761205C17.6136 0.258658 16.3132 0 15 0V0Z" fill="#103558"/>
<path d="M15.5 29.1V34.95M24.925 31.7V41.45V31.7ZM6.075 41.45V46H24.925V41.45H6.075ZM6.075 41.45H1V31.7C1 29.75 2.45 27.475 4.625 25.85C6.8 24.225 9.7 23.9 9.7 23.9L15.5 29.1L6.075 41.45ZM6.075 41.45V31.7V41.45ZM24.925 41.45H30V31.7C30 29.75 28.55 27.475 26.375 25.85C24.2 24.225 21.3 23.9 21.3 23.9L15.5 29.1L24.925 41.45Z" stroke="black" stroke-width="2" stroke-linecap="round" stroke-linejoin="round"/>
<path d="M4.625 25.85C6.8 24.225 9.7 23.9 9.7 23.9L15.5 29.1L21.3 23.9C21.3 23.9 24.2 24.225 26.375 25.85L27.825 22.925L26.375 20H4.625L3.175 22.925L4.625 25.85Z" fill="#103558" fill-opacity="0.8"/>
<path d="M4.625 25.85L3.72905 26.2941C3.86087 26.5601 4.104 26.7537 4.39268 26.8226C4.68136 26.8916 4.98576 26.8287 5.22352 26.6511L4.625 25.85ZM9.7 23.9L10.3675 23.1554C10.1553 22.9651 9.87192 22.8745 9.58863 22.9062L9.7 23.9ZM15.5 29.1L14.8325 29.8446C15.2123 30.1851 15.7877 30.1851 16.1675 29.8446L15.5 29.1ZM21.3 23.9L21.4114 22.9062C21.1281 22.8745 20.8447 22.9651 20.6325 23.1554L21.3 23.9ZM26.375 25.85L25.7765 26.6511C26.0142 26.8287 26.3186 26.8916 26.6073 26.8226C26.896 26.7537 27.1391 26.5601 27.271 26.2941L26.375 25.85ZM27.825 22.925L28.721 23.3691C28.8597 23.0893 28.8597 22.7607 28.721 22.4809L27.825 22.925ZM26.375 20L27.271 19.5559C27.1022 19.2154 26.755 19 26.375 19V20ZM4.625 20V19C4.24499 19 3.89782 19.2154 3.72905 19.5559L4.625 20ZM3.175 22.925L2.27905 22.4809C2.14032 22.7607 2.14032 23.0893 2.27905 23.3691L3.175 22.925ZM5.22352 26.6511C6.17631 25.9392 7.3173 25.494 8.25245 25.2273C8.71429 25.0955 9.11252 25.011 9.39255 24.9599C9.53227 24.9344 9.64174 24.9173 9.71402 24.9069C9.75014 24.9017 9.7769 24.8981 9.79343 24.896C9.8017 24.895 9.8074 24.8943 9.81043 24.8939C9.81194 24.8937 9.81278 24.8936 9.81295 24.8936C9.81303 24.8936 9.81294 24.8936 9.81268 24.8936C9.81254 24.8936 9.81237 24.8937 9.81215 24.8937C9.81204 24.8937 9.81185 24.8937 9.81179 24.8937C9.81159 24.8938 9.81137 24.8938 9.7 23.9C9.58863 22.9062 9.58839 22.9062 9.58814 22.9063C9.58804 22.9063 9.58778 22.9063 9.58758 22.9063C9.58719 22.9064 9.58675 22.9064 9.58626 22.9065C9.5853 22.9066 9.58415 22.9067 9.58283 22.9069C9.58019 22.9072 9.57684 22.9076 9.5728 22.9081C9.56472 22.909 9.55387 22.9104 9.54037 22.9121C9.51336 22.9155 9.47569 22.9206 9.42826 22.9274C9.33346 22.9411 9.19937 22.9621 9.03323 22.9924C8.70154 23.053 8.23883 23.1514 7.7038 23.304C6.6452 23.606 5.24868 24.1358 4.02647 25.0489L5.22352 26.6511ZM9.03245 24.6446L14.8325 29.8446L16.1675 28.3554L10.3675 23.1554L9.03245 24.6446ZM16.1675 29.8446L21.9675 24.6446L20.6325 23.1554L14.8325 28.3554L16.1675 29.8446ZM21.3 23.9C21.1886 24.8938 21.1884 24.8938 21.1882 24.8937C21.1881 24.8937 21.188 24.8937 21.1878 24.8937C21.1876 24.8937 21.1875 24.8936 21.1873 24.8936C21.1871 24.8936 21.187 24.8936 21.1871 24.8936C21.1872 24.8936 21.1881 24.8937 21.1896 24.8939C21.1926 24.8943 21.1983 24.895 21.2066 24.896C21.2231 24.8981 21.2499 24.9017 21.286 24.9069C21.3583 24.9173 21.4677 24.9344 21.6074 24.9599C21.8875 25.011 22.2857 25.0955 22.7476 25.2273C23.6827 25.494 24.8237 25.9392 25.7765 26.6511L26.9735 25.0489C25.7513 24.1358 24.3548 23.606 23.2962 23.304C22.7612 23.1514 22.2985 23.053 21.9668 22.9924C21.8006 22.9621 21.6665 22.9411 21.5717 22.9274C21.5243 22.9206 21.4866 22.9155 21.4596 22.9121C21.4461 22.9104 21.4353 22.909 21.4272 22.9081C21.4232 22.9076 21.4198 22.9072 21.4172 22.9069C21.4158 22.9067 21.4147 22.9066 21.4137 22.9065C21.4133 22.9064 21.4128 22.9064 21.4124 22.9063C21.4122 22.9063 21.412 22.9063 21.4119 22.9063C21.4116 22.9062 21.4114 22.9062 21.3 23.9ZM27.271 26.2941L28.721 23.3691L26.929 22.4809L25.479 25.4059L27.271 26.2941ZM28.721 22.4809L27.271 19.5559L25.479 20.4441L26.929 23.3691L28.721 22.4809ZM26.375 19H4.625V21H26.375V19ZM3.72905 19.5559L2.27905 22.4809L4.07095 23.3691L5.52095 20.4441L3.72905 19.5559ZM2.27905 23.3691L3.72905 26.2941L5.52095 25.4059L4.07095 22.4809L2.27905 23.3691Z" fill="black"/>
<g filter="url(#filter0_d_207_15)">
<path d="M38.1426 2.46875V11H37.0293V2.46875H38.1426ZM40.8848 2.46875V3.39453H34.293V2.46875H40.8848ZM43.0703 2V11H41.9863V2H43.0703ZM42.8125 7.58984L42.3613 7.57227C42.3652 7.13867 42.4297 6.73828 42.5547 6.37109C42.6797 6 42.8555 5.67773 43.082 5.4043C43.3086 5.13086 43.5781 4.91992 43.8906 4.77148C44.207 4.61914 44.5566 4.54297 44.9395 4.54297C45.252 4.54297 45.5332 4.58594 45.7832 4.67188C46.0332 4.75391 46.2461 4.88672 46.4219 5.07031C46.6016 5.25391 46.7383 5.49219 46.832 5.78516C46.9258 6.07422 46.9727 6.42773 46.9727 6.8457V11H45.8828V6.83398C45.8828 6.50195 45.834 6.23633 45.7363 6.03711C45.6387 5.83398 45.4961 5.6875 45.3086 5.59766C45.1211 5.50391 44.8906 5.45703 44.6172 5.45703C44.3477 5.45703 44.1016 5.51367 43.8789 5.62695C43.6602 5.74023 43.4707 5.89648 43.3105 6.0957C43.1543 6.29492 43.0312 6.52344 42.9414 6.78125C42.8555 7.03516 42.8125 7.30469 42.8125 7.58984ZM51.2266 11.1172C50.7852 11.1172 50.3848 11.043 50.0254 10.8945C49.6699 10.7422 49.3633 10.5293 49.1055 10.2559C48.8516 9.98242 48.6562 9.6582 48.5195 9.2832C48.3828 8.9082 48.3145 8.49805 48.3145 8.05273V7.80664C48.3145 7.29102 48.3906 6.83203 48.543 6.42969C48.6953 6.02344 48.9023 5.67969 49.1641 5.39844C49.4258 5.11719 49.7227 4.9043 50.0547 4.75977C50.3867 4.61523 50.7305 4.54297 51.0859 4.54297C51.5391 4.54297 51.9297 4.62109 52.2578 4.77734C52.5898 4.93359 52.8613 5.15234 53.0723 5.43359C53.2832 5.71094 53.4395 6.03906 53.541 6.41797C53.6426 6.79297 53.6934 7.20312 53.6934 7.64844V8.13477H48.959V7.25H52.6094V7.16797C52.5938 6.88672 52.5352 6.61328 52.4336 6.34766C52.3359 6.08203 52.1797 5.86328 51.9648 5.69141C51.75 5.51953 51.457 5.43359 51.0859 5.43359C50.8398 5.43359 50.6133 5.48633 50.4062 5.5918C50.1992 5.69336 50.0215 5.8457 49.873 6.04883C49.7246 6.25195 49.6094 6.5 49.5273 6.79297C49.4453 7.08594 49.4043 7.42383 49.4043 7.80664V8.05273C49.4043 8.35352 49.4453 8.63672 49.5273 8.90234C49.6133 9.16406 49.7363 9.39453 49.8965 9.59375C50.0605 9.79297 50.2578 9.94922 50.4883 10.0625C50.7227 10.1758 50.9883 10.2324 51.2852 10.2324C51.668 10.2324 51.9922 10.1543 52.2578 9.99805C52.5234 9.8418 52.7559 9.63281 52.9551 9.37109L53.6113 9.89258C53.4746 10.0996 53.3008 10.2969 53.0898 10.4844C52.8789 10.6719 52.6191 10.8242 52.3105 10.9414C52.0059 11.0586 51.6445 11.1172 51.2266 11.1172ZM37.2988 25H35.5176L35.5293 24.0801H37.2988C37.9082 24.0801 38.416 23.9531 38.8223 23.6992C39.2285 23.4414 39.5332 23.082 39.7363 22.6211C39.9434 22.1562 40.0469 21.6133 40.0469 20.9922V20.4707C40.0469 19.9824 39.9883 19.5488 39.8711 19.1699C39.7539 18.7871 39.582 18.4648 39.3555 18.2031C39.1289 17.9375 38.8516 17.7363 38.5234 17.5996C38.1992 17.4629 37.8262 17.3945 37.4043 17.3945H35.4824V16.4688H37.4043C37.9629 16.4688 38.4727 16.5625 38.9336 16.75C39.3945 16.9336 39.791 17.2012 40.123 17.5527C40.459 17.9004 40.7168 18.3223 40.8965 18.8184C41.0762 19.3105 41.166 19.8652 41.166 20.4824V20.9922C41.166 21.6094 41.0762 22.166 40.8965 22.6621C40.7168 23.1543 40.457 23.5742 40.1172 23.9219C39.7812 24.2695 39.375 24.5371 38.8984 24.7246C38.4258 24.9082 37.8926 25 37.2988 25ZM36.1211 16.4688V25H34.9902V16.4688H36.1211ZM45.332 25.1172C44.8906 25.1172 44.4902 25.043 44.1309 24.8945C43.7754 24.7422 43.4688 24.5293 43.2109 24.2559C42.957 23.9824 42.7617 23.6582 42.625 23.2832C42.4883 22.9082 42.4199 22.498 42.4199 22.0527V21.8066C42.4199 21.291 42.4961 20.832 42.6484 20.4297C42.8008 20.0234 43.0078 19.6797 43.2695 19.3984C43.5312 19.1172 43.8281 18.9043 44.1602 18.7598C44.4922 18.6152 44.8359 18.543 45.1914 18.543C45.6445 18.543 46.0352 18.6211 46.3633 18.7773C46.6953 18.9336 46.9668 19.1523 47.1777 19.4336C47.3887 19.7109 47.5449 20.0391 47.6465 20.418C47.748 20.793 47.7988 21.2031 47.7988 21.6484V22.1348H43.0645V21.25H46.7148V21.168C46.6992 20.8867 46.6406 20.6133 46.5391 20.3477C46.4414 20.082 46.2852 19.8633 46.0703 19.6914C45.8555 19.5195 45.5625 19.4336 45.1914 19.4336C44.9453 19.4336 44.7188 19.4863 44.5117 19.5918C44.3047 19.6934 44.127 19.8457 43.9785 20.0488C43.8301 20.252 43.7148 20.5 43.6328 20.793C43.5508 21.0859 43.5098 21.4238 43.5098 21.8066V22.0527C43.5098 22.3535 43.5508 22.6367 43.6328 22.9023C43.7188 23.1641 43.8418 23.3945 44.002 23.5938C44.166 23.793 44.3633 23.9492 44.5938 24.0625C44.8281 24.1758 45.0938 24.2324 45.3906 24.2324C45.7734 24.2324 46.0977 24.1543 46.3633 23.998C46.6289 23.8418 46.8613 23.6328 47.0605 23.3711L47.7168 23.8926C47.5801 24.0996 47.4062 24.2969 47.1953 24.4844C46.9844 24.6719 46.7246 24.8242 46.416 24.9414C46.1113 25.0586 45.75 25.1172 45.332 25.1172ZM50.9102 24.0215L52.6445 18.6602H53.752L51.4727 25H50.7461L50.9102 24.0215ZM49.4629 18.6602L51.25 24.0508L51.373 25H50.6465L48.3496 18.6602H49.4629ZM41.2949 34.752V37.875C41.1895 38.0312 41.0215 38.207 40.791 38.4023C40.5605 38.5938 40.2422 38.7617 39.8359 38.9062C39.4336 39.0469 38.9141 39.1172 38.2773 39.1172C37.7578 39.1172 37.2793 39.0273 36.8418 38.8477C36.4082 38.6641 36.0312 38.3984 35.7109 38.0508C35.3945 37.6992 35.1484 37.2734 34.9727 36.7734C34.8008 36.2695 34.7148 35.6992 34.7148 35.0625V34.4004C34.7148 33.7637 34.7891 33.1953 34.9375 32.6953C35.0898 32.1953 35.3125 31.7715 35.6055 31.4238C35.8984 31.0723 36.2578 30.8066 36.6836 30.627C37.1094 30.4434 37.5977 30.3516 38.1484 30.3516C38.8008 30.3516 39.3457 30.4648 39.7832 30.6914C40.2246 30.9141 40.5684 31.2227 40.8145 31.6172C41.0645 32.0117 41.2246 32.4609 41.2949 32.9648H40.1641C40.1133 32.6562 40.0117 32.375 39.8594 32.1211C39.7109 31.8672 39.498 31.6641 39.2207 31.5117C38.9434 31.3555 38.5859 31.2773 38.1484 31.2773C37.7539 31.2773 37.4121 31.3496 37.123 31.4941C36.834 31.6387 36.5957 31.8457 36.4082 32.1152C36.2207 32.3848 36.0801 32.7109 35.9863 33.0938C35.8965 33.4766 35.8516 33.9082 35.8516 34.3887V35.0625C35.8516 35.5547 35.9082 35.9941 36.0215 36.3809C36.1387 36.7676 36.3047 37.0977 36.5195 37.3711C36.7344 37.6406 36.9902 37.8457 37.2871 37.9863C37.5879 38.127 37.9199 38.1973 38.2832 38.1973C38.6855 38.1973 39.0117 38.1641 39.2617 38.0977C39.5117 38.0273 39.707 37.9453 39.8477 37.8516C39.9883 37.7539 40.0957 37.6621 40.1699 37.5762V35.666H38.1953V34.752H41.2949ZM46.8848 37.5352V32.6602H47.9746V39H46.9375L46.8848 37.5352ZM47.0898 36.1992L47.541 36.1875C47.541 36.6094 47.4961 37 47.4062 37.3594C47.3203 37.7148 47.1797 38.0234 46.9844 38.2852C46.7891 38.5469 46.5332 38.752 46.2168 38.9004C45.9004 39.0449 45.5156 39.1172 45.0625 39.1172C44.7539 39.1172 44.4707 39.0723 44.2129 38.9824C43.959 38.8926 43.7402 38.7539 43.5566 38.5664C43.373 38.3789 43.2305 38.1348 43.1289 37.834C43.0312 37.5332 42.9824 37.1719 42.9824 36.75V32.6602H44.0664V36.7617C44.0664 37.0469 44.0977 37.2832 44.1602 37.4707C44.2266 37.6543 44.3145 37.8008 44.4238 37.9102C44.5371 38.0156 44.6621 38.0898 44.7988 38.1328C44.9395 38.1758 45.084 38.1973 45.2324 38.1973C45.6934 38.1973 46.0586 38.1094 46.3281 37.9336C46.5977 37.7539 46.791 37.5137 46.9082 37.2129C47.0293 36.9082 47.0898 36.5703 47.0898 36.1992ZM51.4082 38.3438L53.1719 32.6602H54.332L51.7891 39.9785C51.7305 40.1348 51.6523 40.3027 51.5547 40.4824C51.4609 40.666 51.3398 40.8398 51.1914 41.0039C51.043 41.168 50.8633 41.3008 50.6523 41.4023C50.4453 41.5078 50.1973 41.5605 49.9082 41.5605C49.8223 41.5605 49.7129 41.5488 49.5801 41.5254C49.4473 41.502 49.3535 41.4824 49.2988 41.4668L49.293 40.5879C49.3242 40.5918 49.373 40.5957 49.4395 40.5996C49.5098 40.6074 49.5586 40.6113 49.5859 40.6113C49.832 40.6113 50.041 40.5781 50.2129 40.5117C50.3848 40.4492 50.5293 40.3418 50.6465 40.1895C50.7676 40.041 50.8711 39.8359 50.957 39.5742L51.4082 38.3438ZM50.1133 32.6602L51.7598 37.582L52.041 38.7246L51.2617 39.123L48.9297 32.6602H50.1133Z" fill="#103558"/>
</g>
<defs>
<filter id="filter0_d_207_15" x="30.293" y="2" width="28.0391" height="47.5605" filterUnits="userSpaceOnUse" color-interpolation-filters="sRGB">
<feFlood flood-opacity="0" result="BackgroundImageFix"/>
<feColorMatrix in="SourceAlpha" type="matrix" values="0 0 0 0 0 0 0 0 0 0 0 0 0 0 0 0 0 0 127 0" result="hardAlpha"/>
<feOffset dy="4"/>
<feGaussianBlur stdDeviation="2"/>
<feComposite in2="hardAlpha" operator="out"/>
<feColorMatrix type="matrix" values="0 0 0 0 0.265417 0 0 0 0 0.324253 0 0 0 0 0.379167 0 0 0 1 0"/>
<feBlend mode="normal" in2="BackgroundImageFix" result="effect1_dropShadow_207_15"/>
<feBlend mode="normal" in="SourceGraphic" in2="effect1_dropShadow_207_15" result="shape"/>
</filter>
</defs>
</svg>
